<?xml version="1.0" encoding="UTF-8" standalone="no"?>
<svg
   xmlns:dc="http://purl.org/dc/elements/1.1/"
   xmlns:cc="http://creativecommons.org/ns#"
   xmlns:rdf="http://www.w3.org/1999/02/22-rdf-syntax-ns#"
   xmlns:svg="http://www.w3.org/2000/svg"
   xmlns="http://www.w3.org/2000/svg"
   xmlns:xlink="http://www.w3.org/1999/xlink"
   width="32.020908mm"
   height="32.020908mm"
   viewBox="0 0 32.020908 32.020908"
   version="1.1"
   id="svg915">
  <defs
     id="defs909">
    <radialGradient
       xlink:href="#linearGradient862"
       id="radialGradient864"
       cx="122.2375"
       cy="108.11292"
       fx="122.2375"
       fy="108.11292"
       r="16.010454"
       gradientUnits="userSpaceOnUse"
       gradientTransform="translate(-183.46965,-222.26173)" />
    <linearGradient
       id="linearGradient862">
      <stop
         style="stop-color:#434343;stop-opacity:1"
         offset="0"
         id="stop858" />
      <stop
         style="stop-color:#141414;stop-opacity:1"
         offset="1"
         id="stop860" />
    </linearGradient>
    <radialGradient
       xlink:href="#linearGradient875"
       id="radialGradient877"
       cx="122.2375"
       cy="108.11292"
       fx="122.2375"
       fy="108.11292"
       r="4.8578286"
       gradientUnits="userSpaceOnUse"
       gradientTransform="translate(-183.46965,-222.26173)" />
    <linearGradient
       id="linearGradient875">
      <stop
         style="stop-color:#3d3d3d;stop-opacity:1"
         offset="0"
         id="stop871" />
      <stop
         style="stop-color:#000000;stop-opacity:1"
         offset="1"
         id="stop873" />
    </linearGradient>
    <radialGradient
       xlink:href="#linearGradient883"
       id="radialGradient885"
       cx="122.2375"
       cy="108.11292"
       fx="122.2375"
       fy="108.11292"
       r="1.6192544"
       gradientUnits="userSpaceOnUse"
       gradientTransform="translate(-183.46965,-222.26173)" />
    <linearGradient
       id="linearGradient883">
      <stop
         style="stop-color:#656865;stop-opacity:1"
         offset="0"
         id="stop879" />
      <stop
         style="stop-color:#1f1f1f;stop-opacity:1"
         offset="1"
         id="stop881" />
    </linearGradient>
  </defs>
  <metadata
     id="metadata912">
    <rdf:RDF>
      <cc:Work
         rdf:about="">
        <dc:format>image/svg+xml</dc:format>
        <dc:type
           rdf:resource="http://purl.org/dc/dcmitype/StillImage" />
        <dc:title></dc:title>
      </cc:Work>
    </rdf:RDF>
  </metadata>
  <g
     id="layer1"
     transform="translate(77.242597,130.15926)">
    <path
       style="opacity:1;fill:url(#radialGradient864);fill-opacity:1;stroke:#000000;stroke-width:0.264999;stroke-linecap:butt;stroke-linejoin:miter;stroke-miterlimit:4;stroke-dasharray:none;stroke-dashoffset:0;stroke-opacity:1;paint-order:normal"
       id="path5061"
       d="m -45.66867,-111.01929 a 15.875,15.875 0 0 1 -18.692775,12.433997 15.875,15.875 0 0 1 -12.434262,-18.692597 15.875,15.875 0 0 1 18.692417,-12.43453 15.875,15.875 0 0 1 12.4348,18.69224" />
    <path
       style="opacity:1;fill:url(#radialGradient877);fill-opacity:1;stroke:none;stroke-width:0.405458;stroke-linecap:butt;stroke-linejoin:miter;stroke-miterlimit:4;stroke-dasharray:none;stroke-dashoffset:0;stroke-opacity:1;paint-order:normal"
       id="path5063"
       d="m -56.469643,-113.19116 a 4.8578291,4.8578291 0 0 1 -5.720082,3.80486 4.8578291,4.8578291 0 0 1 -3.804946,-5.72002 4.8578291,4.8578291 0 0 1 5.719972,-3.80503 4.8578291,4.8578291 0 0 1 3.805111,5.71991" />
    <path
       d="m -59.644665,-113.8296 a 1.6192544,1.6192544 0 0 1 -1.906668,1.26827 1.6192544,1.6192544 0 0 1 -1.268298,-1.90665 1.6192544,1.6192544 0 0 1 1.906632,-1.26832 1.6192544,1.6192544 0 0 1 1.268352,1.90661"
       id="path866"
       style="opacity:1;fill:url(#radialGradient885);fill-opacity:1;stroke:none;stroke-width:0.13515;stroke-linecap:butt;stroke-linejoin:miter;stroke-miterlimit:4;stroke-dasharray:none;stroke-dashoffset:0;stroke-opacity:1;paint-order:normal" />
    <path
       d="m -60.709956,-114.04381 a 0.53263992,0.53263992 0 0 1 -0.627182,0.41719 0.53263992,0.53263992 0 0 1 -0.417196,-0.62718 0.53263992,0.53263992 0 0 1 0.62717,-0.4172 0.53263992,0.53263992 0 0 1 0.417214,0.62716"
       id="path5065"
       style="opacity:1;fill:#888a85;fill-opacity:1;stroke:none;stroke-width:0.0444566;stroke-linecap:butt;stroke-linejoin:miter;stroke-miterlimit:4;stroke-dasharray:none;stroke-dashoffset:0;stroke-opacity:1;paint-order:normal" />
  </g>
</svg>
